<svg xmlns="http://www.w3.org/2000/svg" viewBox="0 0 38.43 54.25"><g id="Layer_2" data-name="Layer 2"><g id="Layer_1-2" data-name="Layer 1"><path d="M38.43,10.66l-3.5,39.22L19.19,54.25,3.5,49.89,0,10.66Z" style="fill:#264de4"/><path d="M31.93,47.39l3-33.52H19.22v37Z" style="fill:#2965f1"/><path d="M8,28.42l.43,4.81H19.22V28.42Zm11.2-9.74H7.15l.44,4.81H19.22Zm0,27.24v-5h0l-5.36-1.45-.35-3.83H8.66l.68,7.55,9.85,2.74Z" style="fill:#ebebeb"/><path d="M9,0h5.83V2.44H11.48V4.87h3.39V7.31H9Zm7,0h5.83V2.12h-3.4v.42h3.4V7.42H16V5.19h3.39V4.77H16Zm7,0h5.83V2.12H25.47v.42h3.39V7.42H23V5.19h3.39V4.77H23Z"/><path d="M25.12,33.23l-.55,6.24L19.2,40.92v5l9.86-2.73.08-.81,1.13-12.67.11-1.29.87-9.74h-12v4.81H26l-.44,4.93H19.2v4.81Z" style="fill:#fff"/></g></g></svg>