<svg xmlns="http://www.w3.org/2000/svg" viewBox="0 0 155.67 233.5"><g id="Layer_2" data-name="Layer 2"><g id="Layer_1-2" data-name="Layer 1"><path id="path0_fill" data-name="path0 fill" d="M38.92,233.5a38.92,38.92,0,0,0,38.91-38.92V155.67H38.92a38.92,38.92,0,1,0,0,77.83Z" style="fill:#0acf83"/><path id="path1_fill" data-name="path1 fill" d="M0,116.75A38.93,38.93,0,0,1,38.92,77.83H77.83v77.84H38.92A38.93,38.93,0,0,1,0,116.75Z" style="fill:#a259ff"/><path id="path1_fill-2" data-name="path1 fill" d="M0,38.92A38.93,38.93,0,0,1,38.92,0H77.83V77.83H38.92A38.92,38.92,0,0,1,0,38.92Z" style="fill:#f24e1e"/><path id="path2_fill" data-name="path2 fill" d="M77.83,0h38.92a38.92,38.92,0,1,1,0,77.83H77.83Z" style="fill:#ff7262"/><path id="path3_fill" data-name="path3 fill" d="M155.67,116.75a38.92,38.92,0,1,1-38.92-38.92A38.94,38.94,0,0,1,155.67,116.75Z" style="fill:#1abcfe"/></g></g></svg>