<svg xmlns="http://www.w3.org/2000/svg" viewBox="0 0 249 249"><g id="Layer_2" data-name="Layer 2"><g id="Layer_1-2" data-name="Layer 1"><path d="M124.5,0A124.5,124.5,0,1,0,249,124.5,124.47,124.47,0,0,0,124.5,0Zm97,76.31H180.07C175.56,54,168,35,158.39,21.54A108.86,108.86,0,0,1,221.49,76.31ZM168.68,124.5a238.12,238.12,0,0,1-2.16,32.13h-84a240,240,0,0,1,0-64.26h84A238.12,238.12,0,0,1,168.68,124.5ZM124.5,16.06c13.5,0,30.82,22.14,39.21,60.25H85.29C93.68,38.2,111,16.06,124.5,16.06ZM90.61,21.54C81.08,35,73.44,54,68.93,76.31H27.51A108.86,108.86,0,0,1,90.61,21.54Zm-74.55,103a107.87,107.87,0,0,1,4.87-32.13H66.37a253.75,253.75,0,0,0-2.11,32.13,244.81,244.81,0,0,0,2.11,32.13H20.93A107.87,107.87,0,0,1,16.06,124.5Zm11.45,48.19H68.93C73.44,195,81,214,90.61,227.46A108.86,108.86,0,0,1,27.51,172.69Zm97,60.25c-13.5,0-30.82-22.14-39.21-60.25h78.42c-8.39,38.11-25.71,60.25-39.21,60.25Zm33.89-5.48c9.53-13.45,17.17-32.43,21.68-54.77h41.42A108.86,108.86,0,0,1,158.39,227.46Zm24.24-70.83a253.75,253.75,0,0,0,2.11-32.13,244.81,244.81,0,0,0-2.11-32.13h45.44a108.42,108.42,0,0,1,0,64.26Z" style="fill:#fff"/></g></g></svg>