<svg xmlns="http://www.w3.org/2000/svg" viewBox="0 0 38.36 54"><g id="Layer_2" data-name="Layer 2"><g id="Layer_1-2" data-name="Layer 1"><path d="M3.63,0H6.06V2.4H8.29V0h2.44V7.28H8.29V4.84H6.06V7.28H3.63V0Z"/><path d="M13.92,2.42H11.78V0H18.5V2.42H16.36V7.28H13.92V2.42Z"/><path d="M19.56,0H22.1l1.57,2.56L25.23,0h2.54V7.28H25.34V3.67L23.67,6.25h-.05L22,3.67V7.28H19.56V0Z"/><path d="M29,0h2.44V4.87h3.42V7.28H29Z"/><polygon points="3.49 49.64 0 10.47 38.36 10.47 34.85 49.65 19.17 54 3.49 49.64" style="fill:#e34e26"/><polygon points="19.18 13.68 19.18 50.66 31.87 47.15 34.85 13.68 19.18 13.68" style="fill:#ef662a"/><polygon points="7.15 18.48 8.44 33.01 25.09 33.01 24.53 39.24 19.17 40.69 13.83 39.24 13.47 35.23 8.64 35.23 9.33 42.95 19.17 45.69 29.02 42.95 30.34 28.2 12.84 28.2 12.39 23.29 30.76 23.29 30.78 23.29 31.22 18.48 7.15 18.48" style="fill:#fff"/><polygon points="19.18 18.48 7.15 18.48 8.44 33.01 19.18 33.01 19.18 28.2 12.84 28.2 12.39 23.29 19.18 23.29 19.18 18.48" style="fill:#ebebeb"/><polygon points="19.18 40.69 19.17 40.69 13.83 39.24 13.47 35.23 8.64 35.23 9.33 42.95 19.17 45.69 19.18 45.69 19.18 40.69" style="fill:#ebebeb"/></g></g></svg>