<svg xmlns="http://www.w3.org/2000/svg" viewBox="0 0 43.83 43.83"><g id="Layer_2" data-name="Layer 2"><g id="Layer_1-2" data-name="Layer 1"><path d="M0,0H43.83V43.83H0Z" style="fill:#f7df1e"/><path d="M11.52,36.63l3.36-2c.65,1.14,1.23,2.11,2.65,2.11s2.2-.52,2.2-2.58v-14h4.12V34.18c0,4.27-2.5,6.21-6.15,6.21a6.39,6.39,0,0,1-6.18-3.76m14.57-.45,3.35-1.94a4.48,4.48,0,0,0,4.06,2.5c1.71,0,2.8-.85,2.8-2,0-1.41-1.12-1.91-3-2.73l-1-.44c-3-1.27-5-2.86-5-6.21,0-3.09,2.36-5.44,6-5.44a6.08,6.08,0,0,1,5.85,3.29L36,25.24a2.8,2.8,0,0,0-2.64-1.76,1.79,1.79,0,0,0-2,1.76c0,1.24.77,1.74,2.53,2.5l1,.44c3.5,1.5,5.48,3,5.48,6.47,0,3.71-2.92,5.74-6.83,5.74s-6.3-1.82-7.5-4.21"/></g></g></svg>