<svg xmlns="http://www.w3.org/2000/svg" viewBox="0 0 92.31 43.7"><g id="Layer_2" data-name="Layer 2"><g id="Layer_1-2" data-name="Layer 1"><path d="M26.37,10.16l-.73,2.61Zm3.8,5.67h0Z" style="fill:#222"/><path d="M30,19.74h0Zm1-3.9h0Zm-.59,3.56.84-3.23-.84,3.23ZM48.31,4.51l-1.58,7.43Zm-4.06,0-1.2,5.55,1.2-5.55Z" style="fill:#222"/><path d="M48,4.17H44.66a.44.44,0,0,0-.41.34l-1.2,5.55-1.2,5.55a.45.45,0,0,1-.41.33H39.05c-2.37,0-2.1-1.64-1.61-3.88V12l.06-.28v-.05l.1-.58.12-.62.12-.62.55-2.67L39,4.51a.27.27,0,0,0-.27-.34H35.21a.45.45,0,0,0-.41.34l-.74,3.54-.75,3.53h0l-.07.33c-.86,3.92-.63,7.66,4,7.77h7.46a.44.44,0,0,0,.41-.34l1.58-7.42,1.58-7.43A.27.27,0,0,0,48,4.17M61.52,16a.26.26,0,0,1,.27.33l-.33,1.6m-.33,1.61.33-1.61-.33,1.61m-.41.34-6.22,0,6.23,0" style="fill:#222"/><path d="M52.48,13.91c0-.17.2-.48.39-.48h-.43c-.19,1.91,0,.48,0,.48m2.32,6h0M61.52,16a.26.26,0,0,1,.27.33l-.38,1.87m-5,1.7h0Zm-.82,0h0Zm-.26,0h0m-.26,0h0Zm.47,0h0" style="fill:#222"/><path d="M56.39,19.88h0m4.34,0-4.33,0,4.33,0m.4-.34.28-1.34-.28,1.34m-5.89.37h0Zm-.5,0h0Zm.25,0h0ZM5.57,14l.53-2.32-.6,2.66L4.92,17l.51-2.37L5.57,14m6.29-9.82H8.15a.45.45,0,0,0-.42.34L7.38,6,7,7.57a.26.26,0,0,0,.26.34H11a.44.44,0,0,0,.41-.34L11.78,6l.35-1.55a.27.27,0,0,0-.27-.34" style="fill:#222"/><path d="M11.05,9.3l-1.09,5ZM.27,26l3.06,0L.27,26M6.62,9.3,6.1,11.63Z" style="fill:#222"/><path d="M10.78,9H7a.46.46,0,0,0-.42.33L6.1,11.63,5.57,14l-.14.67L4.92,17l-.5,2.38q-.07.33-.18.66s-.7,2.07-1.87,2H2.22l-1,0a.46.46,0,0,0-.42.32L.4,24,0,25.64A.26.26,0,0,0,.27,26l3.06,0c2.93,0,4.48-1.62,5.47-6.3L10,14.33l1.09-5A.26.26,0,0,0,10.78,9M63.9,19.7a.27.27,0,0,1-.27-.34L66.44,6.19" style="fill:#222"/><path d="M67.81,19.36,69,13.74Zm-4.14.17a1.52,1.52,0,0,1,0-.5L65,12.77l-1.41,6.59a.27.27,0,0,0,.27.34h.34c-.18,0-.54-.08-.57-.17" style="fill:#222"/><path d="M67.59,19.62a1.79,1.79,0,0,1-.53.08h.34a.44.44,0,0,0,.41-.34l.07-.33c0,.18-.19.55-.29.59m.79-3.07.5-2.48h0l-.5,2.48Z" style="fill:#222"/><path d="M79.48,7.07l.15.64a.25.25,0,0,1-.26.33M67.88,19l.5-2.48Z" style="fill:#222"/><path d="M79.33,6.41l.15.66ZM68.88,14.07,69,13.4l.54-2.51L69,13.74l-.07.33ZM66.49,6l-.12.55L65,12.77l1.4-6.58,0-.22Z" style="fill:#222"/><path d="M79.63,7.71l-.15-.64-.15-.66-.08-.33c-.31-1.18-1.2-1.86-3.13-1.86H67.2a.45.45,0,0,0-.41.34l-.14.65L66.49,6l0,.22L65,12.77,63.7,19a1.52,1.52,0,0,0,0,.5c0,.09.39.17.57.17h2.82a1.79,1.79,0,0,0,.53-.08c.1,0,.25-.41.29-.59l.5-2.48.5-2.48h0l.07-.33.61-2.85.53-2.51a.45.45,0,0,1,.41-.33h8.87a.25.25,0,0,0,.26-.33M91.05,1.92H87.53A.76.76,0,0,0,87,2.2l-6.27,9.2c-.11.15-.23.13-.27-.05l-.46-2A.45.45,0,0,0,79.57,9h-4a.25.25,0,0,0-.25.33l1.8,6.33a1.34,1.34,0,0,1,0,.66l-.78,3.06a.25.25,0,0,0,.25.33h4a.47.47,0,0,0,.43-.33l.78-3.06a2.28,2.28,0,0,1,.29-.61L92.25,2.18c.11-.15,0-.27-.13-.27ZM59,9.85a.42.42,0,0,1-.4.35H53.48a.23.23,0,0,1-.24-.27h0s0,0,0,0l0-.08a3.2,3.2,0,0,1,3.35-2.15c2.11,0,2.52,1,2.38,2.18M57.5,4c-6.57,0-8.12,4-9,8s-.79,7.94,6,7.94h1.91l4.32,0a.47.47,0,0,0,.41-.34l.27-1.34.05-.27.33-1.6a.26.26,0,0,0-.27-.33H55.41c-2.43,0-3.15-.65-2.88-2.55H62.3a.39.39,0,0,0,.35-.25l0-.08C64.12,7.63,63.71,4,57.5,4m-31,5.88-.1.33-.73,2.61-.74,2.61a.48.48,0,0,1-.44.33h-3.9c-3,0-3.68-2.31-3-5.73s2.14-5.66,5-5.88c4-.3,4.78,2.5,3.82,5.73m2.67,5.68a44,44,0,0,0,2.26-7C32,5,30.24,0,23.56,0S14,4.78,12.94,10s.34,9.83,6.94,9.79l5.21,0H30a.48.48,0,0,0,.43-.34l.84-3.23a.25.25,0,0,0-.25-.33H29.35a.21.21,0,0,1-.23-.24s0-.05,0-.08" style="fill:#222"/><path d="M62,12.52a.22.22,0,0,1-.23.22.22.22,0,0,1,0-.44.22.22,0,0,1,.23.22" style="fill:#222"/><path d="M33.87,24.81v8.1A10.86,10.86,0,0,0,44.79,43.7h2.73A10.86,10.86,0,0,0,58.44,32.91v-8.1a2.71,2.71,0,0,0-2.73-2.7H36.6a2.71,2.71,0,0,0-2.73,2.7" style="fill:#fea620;fill-rule:evenodd"/><path d="M38,31.56a8.19,8.19,0,0,0,16.38,0H50.25a4.1,4.1,0,0,1-8.19,0v-4H38Zm13.31-6.28-1,3.92,4,1,1-3.92-4-1Z" style="fill:#fff;fill-rule:evenodd"/></g></g></svg>