<svg xmlns="http://www.w3.org/2000/svg" viewBox="0 0 58.39 43.78"><g id="Layer_2" data-name="Layer 2"><g id="Layer_1-2" data-name="Layer 1"><path d="M50.27,25.17A12.06,12.06,0,0,0,45,26.4a11.54,11.54,0,0,1-1.18-2.74,7.56,7.56,0,0,1-.11-2.31,19.83,19.83,0,0,1,.7-2.48c0-.11-.13-.61-1.3-.62s-2.19.22-2.31.53a14,14,0,0,0-.49,1.74c-.2,1.07-2.34,4.87-3.57,6.87a7.37,7.37,0,0,1-.81-2,7.17,7.17,0,0,1-.11-2.3,20.74,20.74,0,0,1,.7-2.49c0-.1-.13-.6-1.3-.61s-2.19.22-2.31.53-.24,1-.49,1.74-3.09,7.06-3.84,8.7c-.38.84-.71,1.51-.95,2h0l0,.09-.32.61h0c-.16.28-.33.55-.42.55a3.58,3.58,0,0,1,0-1.81c.42-2.21,1.43-5.64,1.42-5.76s.2-.66-.66-1a1,1,0,0,0-1.2.2c-.08,0-.13.18-.13.18s.93-3.86-1.77-3.86c-1.69,0-4,1.85-5.16,3.51l-3.93,2.15-1.88,1a1.66,1.66,0,0,1-.13-.14c-3.27-3.49-9.3-5.95-9-10.63.1-1.71.69-6.19,11.6-11.63C25,2,32.09,3.26,33.33,6c1.77,3.89-3.83,11.1-13.11,12.14-3.54.4-5.39-1-5.86-1.48s-.57-.57-.75-.46-.11.64,0,.92A5.51,5.51,0,0,0,17,19.72c1.7.56,5.85.86,10.88-1.08,5.62-2.17,10-8.22,8.72-13.28s-9.82-6.84-17.9-4A40.55,40.55,0,0,0,4.92,9.28C.47,13.44-.23,17.05.06,18.57c1,5.37,8.44,8.87,11.41,11.46l-.41.23C9.58,31,3.93,34,2.52,37.07c-1.6,3.54.26,6.08,1.48,6.42a9.1,9.1,0,0,0,9.82-4,9.85,9.85,0,0,0,.88-9.07l0-.07,1.16-.68c.76-.45,1.5-.86,2.14-1.2a14.16,14.16,0,0,0-.76,3.88A8.14,8.14,0,0,0,18.94,38a1.92,1.92,0,0,0,1.41.46c1.26,0,1.82-1.05,2.45-2.28.77-1.52,1.46-3.28,1.46-3.28s-.86,4.76,1.49,4.76c.85,0,1.71-1.11,2.1-1.68h0l.06-.1.14-.23v0c.34-.59,1.11-2,2.25-4.2,1.47-2.9,2.89-6.53,2.89-6.53a18.49,18.49,0,0,0,.57,2.36A21.2,21.2,0,0,0,35,30c-.34.48-.55.75-.55.75h0c-.28.36-.58.76-.91,1.14a34.37,34.37,0,0,0-2.74,3.43A.93.93,0,0,0,31,36.59a2.27,2.27,0,0,0,1.42.24,6.71,6.71,0,0,0,2.15-.49,7.83,7.83,0,0,0,1.84-1,4.13,4.13,0,0,0,1.77-3.64,7.3,7.3,0,0,0-.67-2.57l.31-.45a49.07,49.07,0,0,0,3.2-5.52,18.63,18.63,0,0,0,.57,2.35,15.73,15.73,0,0,0,1,2.35,10.11,10.11,0,0,0-3.11,4c-.68,1.94-.15,2.82.84,3A3.07,3.07,0,0,0,42,34.61a7.1,7.1,0,0,0,2-1A4.44,4.44,0,0,0,46.09,30a6.66,6.66,0,0,0-.49-2.13,11.13,11.13,0,0,1,5.67-.65c5.07.59,6.07,3.76,5.88,5.09a3.39,3.39,0,0,1-1.61,2.29c-.35.22-.47.3-.43.46s.21.22.51.18a4,4,0,0,0,2.76-3.53c.16-3.14-2.83-6.56-8.11-6.53ZM11.12,38.37c-1.69,1.84-4,2.53-5,1.94S5.41,37,7.48,35a26.89,26.89,0,0,1,4-3l1-.63.12-.06h0l.25-.16a7.27,7.27,0,0,1-1.73,7.14ZM23.38,30c-.59,1.43-1.81,5.09-2.56,4.89s-1-3-.13-5.69a12.71,12.71,0,0,1,2-3.65c.91-1,1.93-1.37,2.17-.95s-1.12,4.51-1.48,5.4ZM33.5,34.87c-.25.13-.48.22-.59.15s.11-.21.11-.21,1.27-1.36,1.77-2l1-1.27v.14c0,1.63-1.58,2.73-2.28,3.17Zm7.81-1.78c-.19-.12-.15-.55.45-1.88A7.08,7.08,0,0,1,43.5,29a2.93,2.93,0,0,1,.17,1,3.22,3.22,0,0,1-2.36,3.14Z" style="fill:#cd6799"/></g></g></svg>